<?xml version="1.0" encoding="UTF-8"?>
<svg xmlns="http://www.w3.org/2000/svg" version="1.1" viewBox="0 0 960 540">
  <defs>
    <style>
      .cls-1 {
        fill: #3e64a3;
      }

      .cls-2 {
        fill: #274068;
      }

      .cls-3 {
        fill: #325285;
      }

      .cls-4 {
        fill: #3b5b94;
      }

      .cls-5 {
        fill: #2d4976;
      }
    </style>
  </defs>
  <!-- Generator: Adobe Illustrator 28.6.0, SVG Export Plug-In . SVG Version: 1.2.0 Build 709)  -->
  <g>
    <g id="visual">
      <path class="cls-2" d="M0,104l87,54,88-33,87,6,87,32h87l88,5,87,6,87-38,87-32,88,21,87,22V0H0v104Z"/>
      <path class="cls-5" d="M0,185l87,10,88,17,87,5,87-11,87,33,88-6,87-11,87-37,87-38,88,43h87v-45l-87-22-88-21-87,32-87,38-87-6-88-5h-87l-87-32-87-6-88,33L0,102v83Z"/>
      <path class="cls-3" d="M0,228l87,21,88,38,87,22,87-6,87,33,88-38,87-16,87-22,87-5,88,32,87-32v-67h-87l-88-43-87,38-87,37-87,11-88,6-87-33-87,11-87-5-88-17L0,183v45Z"/>
      <path class="cls-4" d="M0,357l87,38,88-48,87,21,87,60,87,21,88-86,87,27,87-38,87,27,88-11,87,33v-148l-87,32-88-32-87,5-87,22-87,16-88,38-87-33-87,6-87-22-88-38L0,226v131Z"/>
      <path class="cls-1" d="M0,541h960v-142l-87-33-88,11-87-27-87,38-87-27-88,86-87-21-87-60-87-21-88,48L0,355v186Z"/>
    </g>
  </g>
</svg>